<?xml version="1.0" encoding="utf-8"?>
<!-- Generator: Adobe Illustrator 18.1.1, SVG Export Plug-In . SVG Version: 6.00 Build 0)  -->
<svg version="1.1" id="Capa_1" xmlns="http://www.w3.org/2000/svg" xmlns:xlink="http://www.w3.org/1999/xlink" x="0px" y="0px"
	 viewBox="0 0 800 500" enable-background="new 0 0 800 500" xml:space="preserve">
<text transform="matrix(4.489659e-11 -1 1 4.489659e-11 277.3357 314.6406)" fill="#7F7F7F" font-family="'AktivGrotesk-Light'" font-size="48">layout</text>
<line fill="none" stroke="#7F7F7F" stroke-miterlimit="10" x1="264.5" y1="323" x2="264.5" y2="432"/>
<line fill="none" stroke="#7F7F7F" stroke-miterlimit="10" x1="264.5" y1="67" x2="264.5" y2="176"/>
<line fill="none" stroke="#7F7F7F" stroke-miterlimit="10" x1="265" y1="67.5" x2="291" y2="67.5"/>
<line fill="none" stroke="#7F7F7F" stroke-miterlimit="10" x1="264" y1="432.5" x2="291" y2="432.5"/>
<g>
	<text transform="matrix(1 0 0 1 337.9849 109.6357)" font-family="'AktivGrotesk-Light'" font-size="48">frame</text>
	<text transform="matrix(1 0 0 1 347.1526 213.4359)" font-family="'AktivGrotesk-Light'" font-size="48">table</text>
	<text transform="matrix(1 0 0 1 369.0408 317.236)" font-family="'AktivGrotesk-Light'" font-size="48">div</text>
	<text transform="matrix(1 0 0 1 323.0811 421.0361)" font-family="'AktivGrotesk-Light'" font-size="48">flexbox</text>
	<g>
		<g>
			<line fill="none" stroke="#767CA9" stroke-width="2" stroke-miterlimit="10" x1="400" y1="125" x2="400" y2="161"/>
			<g>
				<polygon fill="#767CA9" points="391.8,154.7 393.3,153.3 400,160.6 406.7,153.3 408.2,154.7 400,163.5 				"/>
			</g>
		</g>
	</g>
	<g>
		<g>
			<line fill="none" stroke="#767CA9" stroke-width="2" stroke-miterlimit="10" x1="400" y1="230" x2="400" y2="266"/>
			<g>
				<polygon fill="#767CA9" points="391.8,259.7 393.3,258.3 400,265.6 406.7,258.3 408.2,259.7 400,268.5 				"/>
			</g>
		</g>
	</g>
	<g>
		<g>
			<line fill="none" stroke="#767CA9" stroke-width="2" stroke-miterlimit="10" x1="400" y1="335" x2="400" y2="371"/>
			<g>
				<polygon fill="#767CA9" points="391.8,364.7 393.3,363.3 400,370.6 406.7,363.3 408.2,364.7 400,373.5 				"/>
			</g>
		</g>
	</g>
</g>
</svg>
